<?xml version="1.0" encoding="UTF-8" standalone="no"?>
<!DOCTYPE svg PUBLIC "-//W3C//DTD SVG 1.1//EN"
 "http://www.w3.org/Graphics/SVG/1.1/DTD/svg11.dtd">
<!-- Generated by graphviz version 2.47.0 (20210316.0004)
 -->
<!-- Title: dependencies Pages: 1 -->
<svg width="1257pt" height="211pt"
 viewBox="0.00 0.00 1257.00 211.00" xmlns="http://www.w3.org/2000/svg" xmlns:xlink="http://www.w3.org/1999/xlink">
<g id="graph0" class="graph" transform="scale(1 1) rotate(0) translate(4 207)">
<title>dependencies</title>
<polygon fill="white" stroke="transparent" points="-4,4 -4,-207 1253,-207 1253,4 -4,4"/>
<text text-anchor="start" x="603.51" y="-42.4" font-family="Times-12" font-weight="bold" font-size="14.00">Legend</text>
<polygon fill="#ffffb3" stroke="transparent" points="390.5,-10 390.5,-30 410.5,-30 410.5,-10 390.5,-10"/>
<text text-anchor="start" x="414.13" y="-15.4" font-family="Times-12" font-size="14.00"> &#160;Declarations</text>
<polygon fill="#8dd3c7" stroke="transparent" points="503.5,-10 503.5,-30 523.5,-30 523.5,-10 503.5,-10"/>
<text text-anchor="start" x="527.23" y="-15.4" font-family="Times-12" font-size="14.00"> &#160;Module</text>
<polygon fill="#80b1d3" stroke="transparent" points="589.5,-10 589.5,-30 609.5,-30 609.5,-10 589.5,-10"/>
<text text-anchor="start" x="613.28" y="-15.4" font-family="Times-12" font-size="14.00"> &#160;Bootstrap</text>
<polygon fill="#fdb462" stroke="transparent" points="686.5,-10 686.5,-30 706.5,-30 706.5,-10 686.5,-10"/>
<text text-anchor="start" x="710.17" y="-15.4" font-family="Times-12" font-size="14.00"> &#160;Providers</text>
<polygon fill="#fb8072" stroke="transparent" points="782.5,-10 782.5,-30 802.5,-30 802.5,-10 782.5,-10"/>
<text text-anchor="start" x="806.23" y="-15.4" font-family="Times-12" font-size="14.00"> &#160;Exports</text>
<g id="clust1" class="cluster">
<title>cluster_AppModule</title>
<polygon fill="none" stroke="black" stroke-dasharray="1,5" points="8,-70 8,-195 1241,-195 1241,-70 8,-70"/>
</g>
<g id="clust6" class="cluster">
<title>cluster_AppModule_providers</title>
<polygon fill="none" stroke="black" points="1103,-78 1103,-130 1233,-130 1233,-78 1103,-78"/>
</g>
<g id="clust3" class="cluster">
<title>cluster_AppModule_imports</title>
<polygon fill="none" stroke="black" points="16,-78 16,-130 1095,-130 1095,-78 16,-78"/>
</g>
<!-- AuthModule -->
<g id="node1" class="node">
<title>AuthModule</title>
<polygon fill="#8dd3c7" stroke="black" points="1086.55,-122 1083.55,-126 1062.55,-126 1059.55,-122 999.45,-122 999.45,-86 1086.55,-86 1086.55,-122"/>
<text text-anchor="middle" x="1043" y="-99.8" font-family="Times,serif" font-size="14.00">AuthModule</text>
</g>
<!-- AppModule -->
<g id="node10" class="node">
<title>AppModule</title>
<polygon fill="#8dd3c7" stroke="black" points="652.66,-187 649.66,-191 628.66,-191 625.66,-187 569.34,-187 569.34,-151 652.66,-151 652.66,-187"/>
<text text-anchor="middle" x="611" y="-164.8" font-family="Times,serif" font-size="14.00">AppModule</text>
</g>
<!-- AuthModule&#45;&gt;AppModule -->
<g id="edge1" class="edge">
<title>AuthModule&#45;&gt;AppModule</title>
<path fill="none" stroke="black" d="M1043,-122.13C1043,-142.57 1043,-173 1043,-173 1043,-173 662.81,-173 662.81,-173"/>
<polygon fill="black" stroke="black" points="662.81,-169.5 652.81,-173 662.81,-176.5 662.81,-169.5"/>
</g>
<!-- CompaniesModule -->
<g id="node2" class="node">
<title>CompaniesModule</title>
<polygon fill="#8dd3c7" stroke="black" points="981.04,-122 978.04,-126 957.04,-126 954.04,-122 858.96,-122 858.96,-86 981.04,-86 981.04,-122"/>
<text text-anchor="middle" x="920" y="-99.8" font-family="Times,serif" font-size="14.00">CompaniesModule</text>
</g>
<!-- CompaniesModule&#45;&gt;AppModule -->
<g id="edge2" class="edge">
<title>CompaniesModule&#45;&gt;AppModule</title>
<path fill="none" stroke="black" d="M920,-122.27C920,-140.56 920,-166 920,-166 920,-166 662.67,-166 662.67,-166"/>
<polygon fill="black" stroke="black" points="662.67,-162.5 652.67,-166 662.67,-169.5 662.67,-162.5"/>
</g>
<!-- DatabasesModule -->
<g id="node3" class="node">
<title>DatabasesModule</title>
<polygon fill="#8dd3c7" stroke="black" points="841.29,-122 838.29,-126 817.29,-126 814.29,-122 724.71,-122 724.71,-86 841.29,-86 841.29,-122"/>
<text text-anchor="middle" x="783" y="-99.8" font-family="Times,serif" font-size="14.00">DatabasesModule</text>
</g>
<!-- DatabasesModule&#45;&gt;AppModule -->
<g id="edge3" class="edge">
<title>DatabasesModule&#45;&gt;AppModule</title>
<path fill="none" stroke="black" d="M783,-122.01C783,-138.05 783,-159 783,-159 783,-159 663.08,-159 663.08,-159"/>
<polygon fill="black" stroke="black" points="663.08,-155.5 653.08,-159 663.08,-162.5 663.08,-155.5"/>
</g>
<!-- FilesModule -->
<g id="node4" class="node">
<title>FilesModule</title>
<polygon fill="#8dd3c7" stroke="black" points="706.27,-122 703.27,-126 682.27,-126 679.27,-122 619.73,-122 619.73,-86 706.27,-86 706.27,-122"/>
<text text-anchor="middle" x="663" y="-99.8" font-family="Times,serif" font-size="14.00">FilesModule</text>
</g>
<!-- FilesModule&#45;&gt;AppModule -->
<g id="edge4" class="edge">
<title>FilesModule&#45;&gt;AppModule</title>
<path fill="none" stroke="black" d="M636.22,-122.11C636.22,-122.11 636.22,-140.99 636.22,-140.99"/>
<polygon fill="black" stroke="black" points="632.72,-140.99 636.22,-150.99 639.72,-140.99 632.72,-140.99"/>
</g>
<!-- JobsModule -->
<g id="node5" class="node">
<title>JobsModule</title>
<polygon fill="#8dd3c7" stroke="black" points="601.44,-122 598.44,-126 577.44,-126 574.44,-122 516.56,-122 516.56,-86 601.44,-86 601.44,-122"/>
<text text-anchor="middle" x="559" y="-99.8" font-family="Times,serif" font-size="14.00">JobsModule</text>
</g>
<!-- JobsModule&#45;&gt;AppModule -->
<g id="edge5" class="edge">
<title>JobsModule&#45;&gt;AppModule</title>
<path fill="none" stroke="black" d="M585.2,-122.11C585.2,-122.11 585.2,-140.99 585.2,-140.99"/>
<polygon fill="black" stroke="black" points="581.7,-140.99 585.2,-150.99 588.7,-140.99 581.7,-140.99"/>
</g>
<!-- PermissionsModule -->
<g id="node6" class="node">
<title>PermissionsModule</title>
<polygon fill="#8dd3c7" stroke="black" points="498.71,-122 495.71,-126 474.71,-126 471.71,-122 371.29,-122 371.29,-86 498.71,-86 498.71,-122"/>
<text text-anchor="middle" x="435" y="-99.8" font-family="Times,serif" font-size="14.00">PermissionsModule</text>
</g>
<!-- PermissionsModule&#45;&gt;AppModule -->
<g id="edge6" class="edge">
<title>PermissionsModule&#45;&gt;AppModule</title>
<path fill="none" stroke="black" d="M435,-122.01C435,-138.05 435,-159 435,-159 435,-159 559.29,-159 559.29,-159"/>
<polygon fill="black" stroke="black" points="559.29,-162.5 569.29,-159 559.29,-155.5 559.29,-162.5"/>
</g>
<!-- ResumesModule -->
<g id="node7" class="node">
<title>ResumesModule</title>
<polygon fill="#8dd3c7" stroke="black" points="353.1,-122 350.1,-126 329.1,-126 326.1,-122 242.9,-122 242.9,-86 353.1,-86 353.1,-122"/>
<text text-anchor="middle" x="298" y="-99.8" font-family="Times,serif" font-size="14.00">ResumesModule</text>
</g>
<!-- ResumesModule&#45;&gt;AppModule -->
<g id="edge7" class="edge">
<title>ResumesModule&#45;&gt;AppModule</title>
<path fill="none" stroke="black" d="M298,-122.27C298,-140.56 298,-166 298,-166 298,-166 559.11,-166 559.11,-166"/>
<polygon fill="black" stroke="black" points="559.11,-169.5 569.11,-166 559.11,-162.5 559.11,-169.5"/>
</g>
<!-- RolesModule -->
<g id="node8" class="node">
<title>RolesModule</title>
<polygon fill="#8dd3c7" stroke="black" points="224.94,-122 221.94,-126 200.94,-126 197.94,-122 133.06,-122 133.06,-86 224.94,-86 224.94,-122"/>
<text text-anchor="middle" x="179" y="-99.8" font-family="Times,serif" font-size="14.00">RolesModule</text>
</g>
<!-- RolesModule&#45;&gt;AppModule -->
<g id="edge8" class="edge">
<title>RolesModule&#45;&gt;AppModule</title>
<path fill="none" stroke="black" d="M179,-122.13C179,-142.57 179,-173 179,-173 179,-173 559.19,-173 559.19,-173"/>
<polygon fill="black" stroke="black" points="559.19,-176.5 569.19,-173 559.19,-169.5 559.19,-176.5"/>
</g>
<!-- UsersModule -->
<g id="node9" class="node">
<title>UsersModule</title>
<polygon fill="#8dd3c7" stroke="black" points="115.92,-122 112.92,-126 91.92,-126 88.92,-122 24.08,-122 24.08,-86 115.92,-86 115.92,-122"/>
<text text-anchor="middle" x="70" y="-99.8" font-family="Times,serif" font-size="14.00">UsersModule</text>
</g>
<!-- UsersModule&#45;&gt;AppModule -->
<g id="edge9" class="edge">
<title>UsersModule&#45;&gt;AppModule</title>
<path fill="none" stroke="black" d="M70,-122.01C70,-144.49 70,-180 70,-180 70,-180 559,-180 559,-180"/>
<polygon fill="black" stroke="black" points="559,-183.5 569,-180 559,-176.5 559,-183.5"/>
</g>
<!-- AppService -->
<g id="node11" class="node">
<title>AppService</title>
<ellipse fill="#fdb462" stroke="black" cx="1168" cy="-104" rx="56.74" ry="18"/>
<text text-anchor="middle" x="1168" y="-99.8" font-family="Times,serif" font-size="14.00">AppService</text>
</g>
<!-- AppService&#45;&gt;AppModule -->
<g id="edge10" class="edge">
<title>AppService&#45;&gt;AppModule</title>
<path fill="none" stroke="black" d="M1168,-122.01C1168,-144.49 1168,-180 1168,-180 1168,-180 662.87,-180 662.87,-180"/>
<polygon fill="black" stroke="black" points="662.87,-176.5 652.87,-180 662.87,-183.5 662.87,-176.5"/>
</g>
</g>
</svg>
