<?xml version="1.0" encoding="UTF-8" standalone="no"?>
<!DOCTYPE svg PUBLIC "-//W3C//DTD SVG 1.1//EN"
 "http://www.w3.org/Graphics/SVG/1.1/DTD/svg11.dtd">
<!-- Generated by graphviz version 2.47.0 (20210316.0004)
 -->
<!-- Title: dependencies Pages: 1 -->
<svg width="2120pt" height="363pt"
 viewBox="0.00 0.00 2120.00 363.00" xmlns="http://www.w3.org/2000/svg" xmlns:xlink="http://www.w3.org/1999/xlink">
<g id="graph0" class="graph" transform="scale(1 1) rotate(0) translate(4 359)">
<title>dependencies</title>
<polygon fill="white" stroke="transparent" points="-4,4 -4,-359 2116,-359 2116,4 -4,4"/>
<text text-anchor="start" x="1035.01" y="-42.4" font-family="Times-12" font-weight="bold" font-size="14.00">Legend</text>
<polygon fill="#ffffb3" stroke="transparent" points="822,-10 822,-30 842,-30 842,-10 822,-10"/>
<text text-anchor="start" x="845.63" y="-15.4" font-family="Times-12" font-size="14.00"> &#160;Declarations</text>
<polygon fill="#8dd3c7" stroke="transparent" points="935,-10 935,-30 955,-30 955,-10 935,-10"/>
<text text-anchor="start" x="958.73" y="-15.4" font-family="Times-12" font-size="14.00"> &#160;Module</text>
<polygon fill="#80b1d3" stroke="transparent" points="1021,-10 1021,-30 1041,-30 1041,-10 1021,-10"/>
<text text-anchor="start" x="1044.78" y="-15.4" font-family="Times-12" font-size="14.00"> &#160;Bootstrap</text>
<polygon fill="#fdb462" stroke="transparent" points="1118,-10 1118,-30 1138,-30 1138,-10 1118,-10"/>
<text text-anchor="start" x="1141.67" y="-15.4" font-family="Times-12" font-size="14.00"> &#160;Providers</text>
<polygon fill="#fb8072" stroke="transparent" points="1214,-10 1214,-30 1234,-30 1234,-10 1214,-10"/>
<text text-anchor="start" x="1237.73" y="-15.4" font-family="Times-12" font-size="14.00"> &#160;Exports</text>
<g id="clust1" class="cluster">
<title>cluster_AppModule</title>
<polygon fill="none" stroke="black" stroke-dasharray="1,5" points="560,-146 560,-347 1688,-347 1688,-146 560,-146"/>
</g>
<g id="clust3" class="cluster">
<title>cluster_AppModule_imports</title>
<polygon fill="none" stroke="black" points="706,-154 706,-282 1680,-282 1680,-154 706,-154"/>
</g>
<g id="clust6" class="cluster">
<title>cluster_AppModule_providers</title>
<polygon fill="none" stroke="black" points="568,-230 568,-282 698,-282 698,-230 568,-230"/>
</g>
<g id="clust7" class="cluster">
<title>cluster_AuthModule</title>
<polygon fill="none" stroke="black" stroke-dasharray="1,5" points="8,-146 8,-214 552,-214 552,-146 8,-146"/>
</g>
<g id="clust10" class="cluster">
<title>cluster_AuthModule_exports</title>
<polygon fill="none" stroke="black" points="438,-154 438,-206 544,-206 544,-154 438,-154"/>
</g>
<g id="clust12" class="cluster">
<title>cluster_AuthModule_providers</title>
<polygon fill="none" stroke="black" points="16,-154 16,-206 430,-206 430,-154 16,-154"/>
</g>
<g id="clust13" class="cluster">
<title>cluster_CompaniesModule</title>
<polygon fill="none" stroke="black" stroke-dasharray="1,5" points="550,-70 550,-138 748,-138 748,-70 550,-70"/>
</g>
<g id="clust18" class="cluster">
<title>cluster_CompaniesModule_providers</title>
<polygon fill="none" stroke="black" points="558,-78 558,-130 740,-130 740,-78 558,-78"/>
</g>
<g id="clust19" class="cluster">
<title>cluster_DatabasesModule</title>
<polygon fill="none" stroke="black" stroke-dasharray="1,5" points="756,-70 756,-138 1088,-138 1088,-70 756,-70"/>
</g>
<g id="clust24" class="cluster">
<title>cluster_DatabasesModule_providers</title>
<polygon fill="none" stroke="black" points="764,-78 764,-130 1080,-130 1080,-78 764,-78"/>
</g>
<g id="clust25" class="cluster">
<title>cluster_FilesModule</title>
<polygon fill="none" stroke="black" stroke-dasharray="1,5" points="1096,-70 1096,-138 1246,-138 1246,-70 1096,-70"/>
</g>
<g id="clust30" class="cluster">
<title>cluster_FilesModule_providers</title>
<polygon fill="none" stroke="black" points="1104,-78 1104,-130 1238,-130 1238,-78 1104,-78"/>
</g>
<g id="clust31" class="cluster">
<title>cluster_JobsModule</title>
<polygon fill="none" stroke="black" stroke-dasharray="1,5" points="1254,-70 1254,-138 1400,-138 1400,-70 1254,-70"/>
</g>
<g id="clust36" class="cluster">
<title>cluster_JobsModule_providers</title>
<polygon fill="none" stroke="black" points="1262,-78 1262,-130 1392,-130 1392,-78 1262,-78"/>
</g>
<g id="clust37" class="cluster">
<title>cluster_PermissionsModule</title>
<polygon fill="none" stroke="black" stroke-dasharray="1,5" points="1408,-70 1408,-138 1614,-138 1614,-70 1408,-70"/>
</g>
<g id="clust42" class="cluster">
<title>cluster_PermissionsModule_providers</title>
<polygon fill="none" stroke="black" points="1416,-78 1416,-130 1606,-130 1606,-78 1416,-78"/>
</g>
<g id="clust43" class="cluster">
<title>cluster_ResumesModule</title>
<polygon fill="none" stroke="black" stroke-dasharray="1,5" points="1622,-70 1622,-138 1804,-138 1804,-70 1622,-70"/>
</g>
<g id="clust48" class="cluster">
<title>cluster_ResumesModule_providers</title>
<polygon fill="none" stroke="black" points="1630,-78 1630,-130 1796,-130 1796,-78 1630,-78"/>
</g>
<g id="clust49" class="cluster">
<title>cluster_RolesModule</title>
<polygon fill="none" stroke="black" stroke-dasharray="1,5" points="1696,-222 1696,-290 1970,-290 1970,-222 1696,-222"/>
</g>
<g id="clust52" class="cluster">
<title>cluster_RolesModule_exports</title>
<polygon fill="none" stroke="black" points="1852,-230 1852,-282 1962,-282 1962,-230 1852,-230"/>
</g>
<g id="clust54" class="cluster">
<title>cluster_RolesModule_providers</title>
<polygon fill="none" stroke="black" points="1704,-230 1704,-282 1844,-282 1844,-230 1704,-230"/>
</g>
<g id="clust55" class="cluster">
<title>cluster_UsersModule</title>
<polygon fill="none" stroke="black" stroke-dasharray="1,5" points="1978,-222 1978,-290 2104,-290 2104,-222 1978,-222"/>
</g>
<g id="clust58" class="cluster">
<title>cluster_UsersModule_exports</title>
<polygon fill="none" stroke="black" points="1986,-230 1986,-282 2096,-282 2096,-230 1986,-230"/>
</g>
<!-- AuthModule -->
<g id="node1" class="node">
<title>AuthModule</title>
<polygon fill="#8dd3c7" stroke="black" points="801.55,-274 798.55,-278 777.55,-278 774.55,-274 714.45,-274 714.45,-238 801.55,-238 801.55,-274"/>
<text text-anchor="middle" x="758" y="-251.8" font-family="Times,serif" font-size="14.00">AuthModule</text>
</g>
<!-- AppModule -->
<g id="node10" class="node">
<title>AppModule</title>
<polygon fill="#8dd3c7" stroke="black" points="1123.66,-339 1120.66,-343 1099.66,-343 1096.66,-339 1040.34,-339 1040.34,-303 1123.66,-303 1123.66,-339"/>
<text text-anchor="middle" x="1082" y="-316.8" font-family="Times,serif" font-size="14.00">AppModule</text>
</g>
<!-- AuthModule&#45;&gt;AppModule -->
<g id="edge1" class="edge">
<title>AuthModule&#45;&gt;AppModule</title>
<path fill="none" stroke="black" d="M801.6,-265C883.8,-265 1053.5,-265 1053.5,-265 1053.5,-265 1053.5,-292.97 1053.5,-292.97"/>
<polygon fill="black" stroke="black" points="1050,-292.97 1053.5,-302.97 1057,-292.97 1050,-292.97"/>
</g>
<!-- AuthService  -->
<g id="node12" class="node">
<title>AuthService </title>
<polygon fill="#fb8072" stroke="black" points="535.98,-198 446.02,-198 446.02,-162 535.98,-162 535.98,-198"/>
<text text-anchor="middle" x="491" y="-175.8" font-family="Times,serif" font-size="14.00">AuthService </text>
</g>
<!-- AuthModule&#45;&gt;AuthService  -->
<g id="edge13" class="edge">
<title>AuthModule&#45;&gt;AuthService </title>
<path fill="none" stroke="black" stroke-dasharray="5,2" d="M714.18,-256C706.9,-256 701.67,-256 701.67,-256 701.67,-256 701.67,-180 701.67,-180 701.67,-180 545.94,-180 545.94,-180"/>
<polygon fill="black" stroke="black" points="545.94,-176.5 535.94,-180 545.94,-183.5 545.94,-176.5"/>
</g>
<!-- CompaniesModule -->
<g id="node2" class="node">
<title>CompaniesModule</title>
<polygon fill="#8dd3c7" stroke="black" points="836.04,-198 833.04,-202 812.04,-202 809.04,-198 713.96,-198 713.96,-162 836.04,-162 836.04,-198"/>
<text text-anchor="middle" x="775" y="-175.8" font-family="Times,serif" font-size="14.00">CompaniesModule</text>
</g>
<!-- CompaniesModule&#45;&gt;AppModule -->
<g id="edge2" class="edge">
<title>CompaniesModule&#45;&gt;AppModule</title>
<path fill="none" stroke="black" d="M819.02,-198.14C819.02,-236.23 819.02,-321 819.02,-321 819.02,-321 1030.33,-321 1030.33,-321"/>
<polygon fill="black" stroke="black" points="1030.33,-324.5 1040.33,-321 1030.33,-317.5 1030.33,-324.5"/>
</g>
<!-- DatabasesModule -->
<g id="node3" class="node">
<title>DatabasesModule</title>
<polygon fill="#8dd3c7" stroke="black" points="1080.29,-198 1077.29,-202 1056.29,-202 1053.29,-198 963.71,-198 963.71,-162 1080.29,-162 1080.29,-198"/>
<text text-anchor="middle" x="1022" y="-175.8" font-family="Times,serif" font-size="14.00">DatabasesModule</text>
</g>
<!-- DatabasesModule&#45;&gt;AppModule -->
<g id="edge3" class="edge">
<title>DatabasesModule&#45;&gt;AppModule</title>
<path fill="none" stroke="black" d="M1066.82,-198.14C1066.82,-198.14 1066.82,-292.93 1066.82,-292.93"/>
<polygon fill="black" stroke="black" points="1063.32,-292.92 1066.82,-302.93 1070.32,-292.93 1063.32,-292.92"/>
</g>
<!-- FilesModule -->
<g id="node4" class="node">
<title>FilesModule</title>
<polygon fill="#8dd3c7" stroke="black" points="1185.27,-198 1182.27,-202 1161.27,-202 1158.27,-198 1098.73,-198 1098.73,-162 1185.27,-162 1185.27,-198"/>
<text text-anchor="middle" x="1142" y="-175.8" font-family="Times,serif" font-size="14.00">FilesModule</text>
</g>
<!-- FilesModule&#45;&gt;AppModule -->
<g id="edge4" class="edge">
<title>FilesModule&#45;&gt;AppModule</title>
<path fill="none" stroke="black" d="M1111.22,-198.14C1111.22,-198.14 1111.22,-292.93 1111.22,-292.93"/>
<polygon fill="black" stroke="black" points="1107.72,-292.92 1111.22,-302.93 1114.72,-292.93 1107.72,-292.92"/>
</g>
<!-- JobsModule -->
<g id="node5" class="node">
<title>JobsModule</title>
<polygon fill="#8dd3c7" stroke="black" points="1288.44,-198 1285.44,-202 1264.44,-202 1261.44,-198 1203.56,-198 1203.56,-162 1288.44,-162 1288.44,-198"/>
<text text-anchor="middle" x="1246" y="-175.8" font-family="Times,serif" font-size="14.00">JobsModule</text>
</g>
<!-- JobsModule&#45;&gt;AppModule -->
<g id="edge5" class="edge">
<title>JobsModule&#45;&gt;AppModule</title>
<path fill="none" stroke="black" d="M1246,-198.21C1246,-234.21 1246,-311 1246,-311 1246,-311 1133.81,-311 1133.81,-311"/>
<polygon fill="black" stroke="black" points="1133.81,-307.5 1123.81,-311 1133.81,-314.5 1133.81,-307.5"/>
</g>
<!-- PermissionsModule -->
<g id="node6" class="node">
<title>PermissionsModule</title>
<polygon fill="#8dd3c7" stroke="black" points="1433.71,-198 1430.71,-202 1409.71,-202 1406.71,-198 1306.29,-198 1306.29,-162 1433.71,-162 1433.71,-198"/>
<text text-anchor="middle" x="1370" y="-175.8" font-family="Times,serif" font-size="14.00">PermissionsModule</text>
</g>
<!-- PermissionsModule&#45;&gt;AppModule -->
<g id="edge6" class="edge">
<title>PermissionsModule&#45;&gt;AppModule</title>
<path fill="none" stroke="black" d="M1370,-198.04C1370,-235.45 1370,-318 1370,-318 1370,-318 1133.88,-318 1133.88,-318"/>
<polygon fill="black" stroke="black" points="1133.88,-314.5 1123.88,-318 1133.88,-321.5 1133.88,-314.5"/>
</g>
<!-- ResumesModule -->
<g id="node7" class="node">
<title>ResumesModule</title>
<polygon fill="#8dd3c7" stroke="black" points="1562.1,-198 1559.1,-202 1538.1,-202 1535.1,-198 1451.9,-198 1451.9,-162 1562.1,-162 1562.1,-198"/>
<text text-anchor="middle" x="1507" y="-175.8" font-family="Times,serif" font-size="14.00">ResumesModule</text>
</g>
<!-- ResumesModule&#45;&gt;AppModule -->
<g id="edge7" class="edge">
<title>ResumesModule&#45;&gt;AppModule</title>
<path fill="none" stroke="black" d="M1507,-198.07C1507,-236.94 1507,-325 1507,-325 1507,-325 1133.91,-325 1133.91,-325"/>
<polygon fill="black" stroke="black" points="1133.91,-321.5 1123.91,-325 1133.91,-328.5 1133.91,-321.5"/>
</g>
<!-- RolesModule -->
<g id="node8" class="node">
<title>RolesModule</title>
<polygon fill="#8dd3c7" stroke="black" points="1671.94,-198 1668.94,-202 1647.94,-202 1644.94,-198 1580.06,-198 1580.06,-162 1671.94,-162 1671.94,-198"/>
<text text-anchor="middle" x="1626" y="-175.8" font-family="Times,serif" font-size="14.00">RolesModule</text>
</g>
<!-- RolesModule&#45;&gt;AuthModule -->
<g id="edge11" class="edge">
<title>RolesModule&#45;&gt;AuthModule</title>
<path fill="none" stroke="black" d="M1610.76,-198.01C1610.76,-220.49 1610.76,-256 1610.76,-256 1610.76,-256 811.76,-256 811.76,-256"/>
<polygon fill="black" stroke="black" points="811.76,-252.5 801.76,-256 811.76,-259.5 811.76,-252.5"/>
</g>
<!-- RolesModule&#45;&gt;AppModule -->
<g id="edge8" class="edge">
<title>RolesModule&#45;&gt;AppModule</title>
<path fill="none" stroke="black" d="M1641.24,-198.03C1641.24,-238.3 1641.24,-332 1641.24,-332 1641.24,-332 1134.03,-332 1134.03,-332"/>
<polygon fill="black" stroke="black" points="1134.03,-328.5 1124.03,-332 1134.03,-335.5 1134.03,-328.5"/>
</g>
<!-- RolesService  -->
<g id="node23" class="node">
<title>RolesService </title>
<polygon fill="#fb8072" stroke="black" points="1953.86,-274 1860.14,-274 1860.14,-238 1953.86,-238 1953.86,-274"/>
<text text-anchor="middle" x="1907" y="-251.8" font-family="Times,serif" font-size="14.00">RolesService </text>
</g>
<!-- RolesModule&#45;&gt;RolesService  -->
<g id="edge24" class="edge">
<title>RolesModule&#45;&gt;RolesService </title>
<path fill="none" stroke="black" stroke-dasharray="5,2" d="M1671.77,-174C1751.4,-174 1907,-174 1907,-174 1907,-174 1907,-227.8 1907,-227.8"/>
<polygon fill="black" stroke="black" points="1903.5,-227.8 1907,-237.8 1910.5,-227.8 1903.5,-227.8"/>
</g>
<!-- UsersModule -->
<g id="node9" class="node">
<title>UsersModule</title>
<polygon fill="#8dd3c7" stroke="black" points="945.92,-198 942.92,-202 921.92,-202 918.92,-198 854.08,-198 854.08,-162 945.92,-162 945.92,-198"/>
<text text-anchor="middle" x="900" y="-175.8" font-family="Times,serif" font-size="14.00">UsersModule</text>
</g>
<!-- UsersModule&#45;&gt;AuthModule -->
<g id="edge12" class="edge">
<title>UsersModule&#45;&gt;AuthModule</title>
<path fill="none" stroke="black" d="M900,-198.31C900,-218.15 900,-247 900,-247 900,-247 811.76,-247 811.76,-247"/>
<polygon fill="black" stroke="black" points="811.76,-243.5 801.76,-247 811.76,-250.5 811.76,-243.5"/>
</g>
<!-- UsersModule&#45;&gt;AppModule -->
<g id="edge9" class="edge">
<title>UsersModule&#45;&gt;AppModule</title>
<path fill="none" stroke="black" d="M922.86,-198.08C922.86,-234.23 922.86,-312 922.86,-312 922.86,-312 1030.19,-312 1030.19,-312"/>
<polygon fill="black" stroke="black" points="1030.19,-315.5 1040.19,-312 1030.19,-308.5 1030.19,-315.5"/>
</g>
<!-- UsersService  -->
<g id="node25" class="node">
<title>UsersService </title>
<polygon fill="#fb8072" stroke="black" points="2087.85,-274 1994.15,-274 1994.15,-238 2087.85,-238 2087.85,-274"/>
<text text-anchor="middle" x="2041" y="-251.8" font-family="Times,serif" font-size="14.00">UsersService </text>
</g>
<!-- UsersModule&#45;&gt;UsersService  -->
<g id="edge26" class="edge">
<title>UsersModule&#45;&gt;UsersService </title>
<path fill="none" stroke="black" stroke-dasharray="5,2" d="M877.14,-198.06C877.14,-202.49 877.14,-206 877.14,-206 877.14,-206 2041,-206 2041,-206 2041,-206 2041,-227.95 2041,-227.95"/>
<polygon fill="black" stroke="black" points="2037.5,-227.95 2041,-237.95 2044.5,-227.95 2037.5,-227.95"/>
</g>
<!-- AppService -->
<g id="node11" class="node">
<title>AppService</title>
<ellipse fill="#fdb462" stroke="black" cx="633" cy="-256" rx="56.74" ry="18"/>
<text text-anchor="middle" x="633" y="-251.8" font-family="Times,serif" font-size="14.00">AppService</text>
</g>
<!-- AppService&#45;&gt;AppModule -->
<g id="edge10" class="edge">
<title>AppService&#45;&gt;AppModule</title>
<path fill="none" stroke="black" d="M633,-274.29C633,-296.21 633,-330 633,-330 633,-330 1030.16,-330 1030.16,-330"/>
<polygon fill="black" stroke="black" points="1030.16,-333.5 1040.16,-330 1030.16,-326.5 1030.16,-333.5"/>
</g>
<!-- AuthService -->
<g id="node13" class="node">
<title>AuthService</title>
<ellipse fill="#fdb462" stroke="black" cx="363" cy="-180" rx="59.11" ry="18"/>
<text text-anchor="middle" x="363" y="-175.8" font-family="Times,serif" font-size="14.00">AuthService</text>
</g>
<!-- AuthService&#45;&gt;AuthModule -->
<g id="edge14" class="edge">
<title>AuthService&#45;&gt;AuthModule</title>
<path fill="none" stroke="black" d="M363,-198.19C363,-206.28 363,-214 363,-214 363,-214 779.89,-214 779.89,-214 779.89,-214 779.89,-227.94 779.89,-227.94"/>
<polygon fill="black" stroke="black" points="776.39,-227.94 779.89,-237.94 783.39,-227.94 776.39,-227.94"/>
</g>
<!-- JwtStrategy -->
<g id="node14" class="node">
<title>JwtStrategy</title>
<ellipse fill="#fdb462" stroke="black" cx="229" cy="-180" rx="56.76" ry="18"/>
<text text-anchor="middle" x="229" y="-175.8" font-family="Times,serif" font-size="14.00">JwtStrategy</text>
</g>
<!-- JwtStrategy&#45;&gt;AuthModule -->
<g id="edge15" class="edge">
<title>JwtStrategy&#45;&gt;AuthModule</title>
<path fill="none" stroke="black" d="M229,-198.06C229,-209.44 229,-222 229,-222 229,-222 758,-222 758,-222 758,-222 758,-227.81 758,-227.81"/>
<polygon fill="black" stroke="black" points="754.5,-227.81 758,-237.81 761.5,-227.81 754.5,-227.81"/>
</g>
<!-- LocalStrategy -->
<g id="node15" class="node">
<title>LocalStrategy</title>
<ellipse fill="#fdb462" stroke="black" cx="89" cy="-180" rx="65.41" ry="18"/>
<text text-anchor="middle" x="89" y="-175.8" font-family="Times,serif" font-size="14.00">LocalStrategy</text>
</g>
<!-- LocalStrategy&#45;&gt;AuthModule -->
<g id="edge16" class="edge">
<title>LocalStrategy&#45;&gt;AuthModule</title>
<path fill="none" stroke="black" d="M89,-198.05C89,-212.37 89,-230 89,-230 89,-230 736.11,-230 736.11,-230 736.11,-230 736.11,-230.79 736.11,-230.79"/>
<polygon fill="black" stroke="black" points="732.61,-227.94 736.11,-237.94 739.61,-227.94 732.61,-227.94"/>
</g>
<!-- CompaniesService -->
<g id="node16" class="node">
<title>CompaniesService</title>
<ellipse fill="#fdb462" stroke="black" cx="649" cy="-104" rx="83.38" ry="18"/>
<text text-anchor="middle" x="649" y="-99.8" font-family="Times,serif" font-size="14.00">CompaniesService</text>
</g>
<!-- CompaniesService&#45;&gt;CompaniesModule -->
<g id="edge17" class="edge">
<title>CompaniesService&#45;&gt;CompaniesModule</title>
<path fill="none" stroke="black" d="M723.09,-112.42C723.09,-112.42 723.09,-151.73 723.09,-151.73"/>
<polygon fill="black" stroke="black" points="719.59,-151.73 723.09,-161.73 726.59,-151.73 719.59,-151.73"/>
</g>
<!-- DatabasesService -->
<g id="node17" class="node">
<title>DatabasesService</title>
<ellipse fill="#fdb462" stroke="black" cx="993" cy="-104" rx="79.27" ry="18"/>
<text text-anchor="middle" x="993" y="-99.8" font-family="Times,serif" font-size="14.00">DatabasesService</text>
</g>
<!-- DatabasesService&#45;&gt;DatabasesModule -->
<g id="edge18" class="edge">
<title>DatabasesService&#45;&gt;DatabasesModule</title>
<path fill="none" stroke="black" d="M1036.04,-119.38C1036.04,-119.38 1036.04,-151.97 1036.04,-151.97"/>
<polygon fill="black" stroke="black" points="1032.54,-151.97 1036.04,-161.97 1039.54,-151.97 1032.54,-151.97"/>
</g>
<!-- UsersService -->
<g id="node18" class="node">
<title>UsersService</title>
<ellipse fill="#fdb462" stroke="black" cx="834" cy="-104" rx="61.95" ry="18"/>
<text text-anchor="middle" x="834" y="-99.8" font-family="Times,serif" font-size="14.00">UsersService</text>
</g>
<!-- UsersService&#45;&gt;DatabasesModule -->
<g id="edge19" class="edge">
<title>UsersService&#45;&gt;DatabasesModule</title>
<path fill="none" stroke="black" d="M882.08,-115.82C882.08,-129.16 882.08,-149 882.08,-149 882.08,-149 999.95,-149 999.95,-149 999.95,-149 999.95,-151.97 999.95,-151.97"/>
<polygon fill="black" stroke="black" points="996.45,-151.97 999.95,-161.97 1003.45,-151.97 996.45,-151.97"/>
</g>
<!-- UsersService&#45;&gt;UsersModule -->
<g id="edge27" class="edge">
<title>UsersService&#45;&gt;UsersModule</title>
<path fill="none" stroke="black" d="M868.19,-119.02C868.19,-119.02 868.19,-151.8 868.19,-151.8"/>
<polygon fill="black" stroke="black" points="864.69,-151.8 868.19,-161.8 871.69,-151.8 864.69,-151.8"/>
</g>
<!-- FilesService -->
<g id="node19" class="node">
<title>FilesService</title>
<ellipse fill="#fdb462" stroke="black" cx="1171" cy="-104" rx="58.54" ry="18"/>
<text text-anchor="middle" x="1171" y="-99.8" font-family="Times,serif" font-size="14.00">FilesService</text>
</g>
<!-- FilesService&#45;&gt;FilesModule -->
<g id="edge20" class="edge">
<title>FilesService&#45;&gt;FilesModule</title>
<path fill="none" stroke="black" d="M1148.81,-120.87C1148.81,-120.87 1148.81,-151.85 1148.81,-151.85"/>
<polygon fill="black" stroke="black" points="1145.31,-151.85 1148.81,-161.85 1152.31,-151.85 1145.31,-151.85"/>
</g>
<!-- JobsService -->
<g id="node20" class="node">
<title>JobsService</title>
<ellipse fill="#fdb462" stroke="black" cx="1327" cy="-104" rx="57.32" ry="18"/>
<text text-anchor="middle" x="1327" y="-99.8" font-family="Times,serif" font-size="14.00">JobsService</text>
</g>
<!-- JobsService&#45;&gt;JobsModule -->
<g id="edge21" class="edge">
<title>JobsService&#45;&gt;JobsModule</title>
<path fill="none" stroke="black" d="M1279.03,-113.94C1279.03,-113.94 1279.03,-151.91 1279.03,-151.91"/>
<polygon fill="black" stroke="black" points="1275.53,-151.91 1279.03,-161.91 1282.53,-151.91 1275.53,-151.91"/>
</g>
<!-- PermissionsService -->
<g id="node21" class="node">
<title>PermissionsService</title>
<ellipse fill="#fdb462" stroke="black" cx="1511" cy="-104" rx="86.83" ry="18"/>
<text text-anchor="middle" x="1511" y="-99.8" font-family="Times,serif" font-size="14.00">PermissionsService</text>
</g>
<!-- PermissionsService&#45;&gt;PermissionsModule -->
<g id="edge22" class="edge">
<title>PermissionsService&#45;&gt;PermissionsModule</title>
<path fill="none" stroke="black" d="M1428.97,-109.96C1428.97,-109.96 1428.97,-151.93 1428.97,-151.93"/>
<polygon fill="black" stroke="black" points="1425.47,-151.93 1428.97,-161.93 1432.47,-151.93 1425.47,-151.93"/>
</g>
<!-- ResumesService -->
<g id="node22" class="node">
<title>ResumesService</title>
<ellipse fill="#fdb462" stroke="black" cx="1713" cy="-104" rx="74.71" ry="18"/>
<text text-anchor="middle" x="1713" y="-99.8" font-family="Times,serif" font-size="14.00">ResumesService</text>
</g>
<!-- ResumesService&#45;&gt;ResumesModule -->
<g id="edge23" class="edge">
<title>ResumesService&#45;&gt;ResumesModule</title>
<path fill="none" stroke="black" d="M1654.93,-115.55C1654.93,-124.72 1654.93,-136 1654.93,-136 1654.93,-136 1507,-136 1507,-136 1507,-136 1507,-151.85 1507,-151.85"/>
<polygon fill="black" stroke="black" points="1503.5,-151.85 1507,-161.85 1510.5,-151.85 1503.5,-151.85"/>
</g>
<!-- RolesService -->
<g id="node24" class="node">
<title>RolesService</title>
<ellipse fill="#fdb462" stroke="black" cx="1774" cy="-256" rx="61.97" ry="18"/>
<text text-anchor="middle" x="1774" y="-251.8" font-family="Times,serif" font-size="14.00">RolesService</text>
</g>
<!-- RolesService&#45;&gt;RolesModule -->
<g id="edge25" class="edge">
<title>RolesService&#45;&gt;RolesModule</title>
<path fill="none" stroke="black" d="M1749.94,-239.41C1749.94,-218.71 1749.94,-186 1749.94,-186 1749.94,-186 1681.8,-186 1681.8,-186"/>
<polygon fill="black" stroke="black" points="1681.8,-182.5 1671.8,-186 1681.8,-189.5 1681.8,-182.5"/>
</g>
</g>
</svg>
